<svg width="771" height="857" viewBox="0 0 771 857" fill="none" xmlns="http://www.w3.org/2000/svg">
<path d="M169.257 59.2646L350.551 279.034C350.551 279.034 595.008 6.25001 597.419 3.35834C599.83 0.466669 603.205 -1.46138 608.027 1.43054C608.027 1.43054 611.194 7.96069 614.777 10.5877C620.881 15.0622 631.653 10.1054 634.064 12.5154C636.475 14.9253 640.814 27.2952 641.296 29.3836C641.778 31.4721 663.958 49.1436 663.958 49.1436C663.958 49.1436 667.206 51.2757 668.78 51.5532C676.976 52.9988 683.084 48.1797 686.137 46.2519C693.852 46.2519 707.738 60.3249 705.424 64.566C703.11 68.8072 690.959 77.5785 690.959 80.4704C690.959 84.4445 715.594 93.4829 717.478 99.2665C717.949 100.712 713.885 115.171 715.067 116.616C716.25 118.062 723.264 118.544 723.264 120.954C723.264 123.364 720.371 129.629 723.264 133.485C726.157 137.341 731.461 138.304 731.461 139.75V145.534L472.056 449.645C571.06 554.067 771.659 754.253 770.998 759.538C770.516 763.394 756.051 775.443 755.087 776.407C754.123 777.371 749.301 801.95 748.337 803.396C747.42 804.77 738.671 809.624 734.078 812.171L733.39 812.553C729.05 814.963 726.157 827.494 722.782 830.385C719.407 833.277 705.949 835.689 697.709 838.097C694.358 839.076 692.912 842.931 694.358 850.161C693.88 851.761 692.071 853.085 690.501 854.016C688.09 855.447 677.965 858.193 673.625 856.426C673.625 856.426 661.22 842.115 660.101 840.988C658.678 839.558 642.743 840.988 642.743 840.988L356.337 589.41C290.119 671.824 151.417 838.289 126.344 844.844C120.9 846.267 114.841 845.732 108.529 843.833C96.4746 831.365 59.7255 812.432 47.2694 798.095C43.2513 799.862 43.4368 801.002 35.2153 794.736C31.5334 791.931 28.6347 790.668 28.9719 787.989C29.5156 783.669 35.2153 777.977 35.2153 773.515C35.2153 768.036 -1.40489 752.325 0.0417598 744.132C1.40297 736.422 5.25975 732.436 6.31011 724.854C9.78169 699.792 57.8667 624.095 59.3235 621.701C60.7802 619.306 75.2349 630.376 75.2349 630.376L202.526 453.018C202.526 453.018 186.615 441.949 186.615 440.969C186.615 432.973 195.318 422.189 195.776 422.655C201.479 428.47 213.134 434.222 213.134 434.222V428.921L11.5892 175.415L20.2682 160.474L35.2153 167.703L26.5363 139.268L47.2694 144.088V127.22H52.091L47.2694 116.135L70.4133 112.279L64.6273 104.086L80.5387 86.2538L101.754 92.5192V77.5787L118.63 67.9397H161.06L169.257 59.2646Z" fill="url(#paint0_linear_336:1611)"/>
<defs>
<linearGradient id="paint0_linear_336:1611" x1="771" y1="-5.53775e-05" x2="-0.000157432" y2="857" gradientUnits="userSpaceOnUse">
<stop stop-color="#06BDF9"/>
<stop offset="1" stop-color="#3476D9"/>
</linearGradient>
</defs>
</svg>
